<svg width="30" height="30" viewBox="0 0 30 30" fill="none" xmlns="http://www.w3.org/2000/svg">
<path opacity="0.1" d="M18.806 0.750366C19.446 0.750366 20.0799 0.876543 20.6712 1.12146C21.2626 1.36642 21.8006 1.72548 22.2532 2.1781C22.7057 2.63063 23.065 3.16796 23.3099 3.75916C23.5547 4.35044 23.681 4.9844 23.681 5.62439V8.5697L23.9319 8.71521C24.6751 9.14123 25.2936 9.75453 25.7269 10.4935C26.1602 11.2327 26.393 12.0723 26.4017 12.9291L26.4417 20.5111C26.4467 21.3697 26.2253 22.2148 25.8011 22.9613C25.3768 23.7077 24.7639 24.33 24.0237 24.765L17.5384 28.5951C16.7931 29.0239 15.948 29.2503 15.0882 29.2504C14.2282 29.2504 13.3825 29.0239 12.637 28.5951L6.03253 24.8705C5.28921 24.4444 4.66992 23.8313 4.23663 23.0922C3.80339 22.353 3.57144 21.5133 3.56281 20.6566V13.1136C3.55785 12.2567 3.77688 11.4134 4.19855 10.6674C4.62028 9.92121 5.23024 9.29846 5.9671 8.86072L6.34991 8.63611V5.62439C6.34991 4.33171 6.86362 3.09219 7.77765 2.1781C8.69173 1.26402 9.93124 0.750394 11.2239 0.750366H18.806ZM15.0052 11.8754C14.6067 11.8689 14.2138 11.9728 13.8704 12.1752C13.5273 12.3775 13.2462 12.6703 13.0589 13.0219L12.7239 13.7054C12.7048 13.7422 12.6773 13.7737 12.6439 13.7982C12.6103 13.8228 12.5715 13.8399 12.5306 13.847L11.7708 13.9496C11.3651 14.0044 10.9828 14.1729 10.6683 14.4349C10.3537 14.6971 10.1196 15.0428 9.99249 15.432C9.85904 15.8184 9.83896 16.2348 9.93488 16.6322C10.0308 17.0296 10.2385 17.3912 10.5335 17.6742L11.139 18.267C11.1581 18.3026 11.1683 18.3427 11.1683 18.3832C11.1682 18.4234 11.158 18.4629 11.139 18.4984L11.0101 19.2465C10.9392 19.6496 10.9823 20.0645 11.1341 20.4447C11.2859 20.825 11.5412 21.1552 11.8704 21.3988C12.1995 21.6422 12.5895 21.7896 12.9974 21.8236C13.4054 21.8576 13.8151 21.7769 14.18 21.5912L14.8499 21.2308C14.9283 21.1986 15.0166 21.1987 15.095 21.2308L15.765 21.5785C16.08 21.7548 16.4352 21.8478 16.7962 21.849L16.7571 21.8754C17.0776 21.8744 17.3946 21.8031 17.6849 21.6674C17.9749 21.5316 18.2318 21.3343 18.4378 21.0892C18.6439 20.8439 18.7946 20.5558 18.8782 20.2465C18.9618 19.9374 18.9764 19.6138 18.9222 19.2982L18.7933 18.5502C18.786 18.5082 18.7896 18.4646 18.803 18.4242C18.8165 18.384 18.8396 18.3478 18.8704 18.3187L19.4251 17.7904C19.7212 17.5075 19.9318 17.147 20.0335 16.7504C20.1352 16.3538 20.1236 15.9366 20.0003 15.5463C19.8769 15.1558 19.6465 14.8075 19.3353 14.5414C19.024 14.2753 18.6444 14.1017 18.2396 14.0404L17.4925 13.9369C17.4507 13.9274 17.4107 13.909 17.3773 13.8822C17.3439 13.8555 17.3175 13.8212 17.2991 13.7826L16.9642 13.099C16.7878 12.73 16.5093 12.4193 16.1624 12.2025C15.8156 11.9857 15.4142 11.8722 15.0052 11.8754Z" fill="black" style="fill:black;fill-opacity:1;"/>
<path d="M18.8405 0.625C19.4859 0.625059 20.125 0.752085 20.7213 0.999023C21.3179 1.24613 21.8604 1.60884 22.317 2.06543C22.7734 2.5219 23.1354 3.0638 23.3824 3.66016C23.6295 4.25671 23.7574 4.89629 23.7574 5.54199V8.51367L24.0104 8.66016C24.7602 9.08995 25.3848 9.70849 25.8219 10.4541C26.2589 11.1997 26.4929 12.0469 26.5016 12.9111L26.5416 20.5596C26.5467 21.4257 26.3241 22.2782 25.8961 23.0312C25.4682 23.7842 24.8498 24.4117 24.1031 24.8506L17.5612 28.7148C16.8092 29.1474 15.956 29.375 15.0885 29.375C14.2211 29.3749 13.3687 29.1474 12.6168 28.7148L5.95471 24.957C5.20484 24.5272 4.58029 23.9087 4.14319 23.1631C3.70608 22.4174 3.47123 21.5703 3.46252 20.7061V13.0977C3.45746 12.2331 3.67869 11.3816 4.10413 10.6289C4.52949 9.87646 5.14424 9.24815 5.88733 8.80664L6.27405 8.58008V5.54199C6.27406 4.23798 6.79243 2.98753 7.71448 2.06543C8.63654 1.14336 9.88705 0.625064 11.191 0.625H18.8405ZM14.9293 6.28418C14.4129 6.28418 13.9052 6.41892 13.4567 6.6748L6.9137 10.5254C6.48339 10.7969 6.1308 11.1756 5.89026 11.624C5.64977 12.0723 5.52991 12.5754 5.54163 13.084V20.6934C5.54562 21.2076 5.68356 21.7122 5.94299 22.1562C6.20245 22.6003 6.57407 22.9686 7.02014 23.2246L13.6832 26.9824C14.1221 27.2312 14.6183 27.3623 15.1227 27.3623C15.6269 27.3622 16.1225 27.2311 16.5612 26.9824L23.1178 23.0918C23.5672 22.8385 23.9417 22.4708 24.2037 22.0264C24.4658 21.5818 24.6061 21.0756 24.61 20.5596L24.5436 12.9512C24.5397 12.4369 24.4006 11.9324 24.1412 11.4883C23.8817 11.0441 23.5103 10.675 23.0641 10.4189L16.401 6.6748C15.9526 6.41908 15.4455 6.28423 14.9293 6.28418ZM15.0172 11.625C15.4402 11.6217 15.8557 11.7397 16.2145 11.9639C16.5731 12.1881 16.8603 12.51 17.0426 12.8916L17.3893 13.5977C17.4083 13.6375 17.4359 13.6726 17.4703 13.7002C17.505 13.7279 17.5462 13.748 17.5895 13.7578L18.3619 13.8643C18.7805 13.9276 19.173 14.1068 19.4948 14.3818C19.8166 14.657 20.0556 15.0171 20.1832 15.4209C20.3108 15.8245 20.3225 16.2559 20.2174 16.666C20.1122 17.0762 19.8937 17.4487 19.5875 17.7412L19.0153 18.2881C18.9832 18.3182 18.9589 18.3558 18.9449 18.3975C18.931 18.4393 18.9276 18.4848 18.9352 18.5283L19.068 19.3008C19.1242 19.6273 19.1086 19.9624 19.0221 20.2822C18.9356 20.602 18.7801 20.8987 18.567 21.1523C18.3539 21.4061 18.0879 21.6106 17.7877 21.751C17.4877 21.8913 17.1609 21.9648 16.8297 21.9658L16.8698 21.9395C16.4964 21.9382 16.1292 21.8415 15.8033 21.6592L15.111 21.2998C15.0299 21.2665 14.9382 21.2665 14.8571 21.2998L14.1647 21.6729C13.7874 21.8649 13.3639 21.9481 12.942 21.9131C12.52 21.878 12.1154 21.7255 11.775 21.4736C11.4348 21.2219 11.1713 20.8803 11.0143 20.4873C10.8573 20.094 10.813 19.6641 10.8864 19.2471L11.0201 18.4746C11.0399 18.4378 11.0494 18.3963 11.0494 18.3545C11.0494 18.3127 11.0399 18.2712 11.0201 18.2344L10.3932 17.6221C10.0881 17.3295 9.87323 16.9549 9.77405 16.5439C9.67498 16.1332 9.69566 15.7022 9.83362 15.3027C9.96511 14.9004 10.2077 14.5434 10.5328 14.2725C10.8581 14.0015 11.253 13.8273 11.6725 13.7705L12.4586 13.6641C12.5009 13.6566 12.5412 13.6396 12.5758 13.6143C12.6105 13.5888 12.639 13.5557 12.6588 13.5176L13.0055 12.8115C13.1992 12.4478 13.4894 12.1448 13.8444 11.9355C14.1994 11.7263 14.6052 11.6183 15.0172 11.625ZM15.2701 13.7979C15.2701 13.6649 15.0846 13.5977 15.0309 13.6504C14.9806 13.6465 14.9304 13.6593 14.8873 13.6855C14.8443 13.7119 14.8101 13.7513 14.7906 13.7979L14.444 14.4902C14.2805 14.82 14.0385 15.1046 13.7389 15.3184C13.439 15.5322 13.0905 15.6686 12.7252 15.7158L11.9528 15.8232C11.9016 15.8303 11.853 15.851 11.8131 15.8838C11.7731 15.9167 11.743 15.9607 11.7262 16.0098C11.7137 16.0581 11.7127 16.1087 11.7242 16.1572C11.7359 16.206 11.7595 16.2514 11.7926 16.2891L12.3522 16.8359C12.6141 17.0942 12.8091 17.4122 12.9205 17.7627C13.032 18.1132 13.0566 18.4856 12.9918 18.8477L12.859 19.6201C12.8509 19.669 12.8558 19.7198 12.8746 19.7656C12.8935 19.8115 12.9253 19.8508 12.9655 19.8799C13.0056 19.9089 13.0528 19.9261 13.1022 19.9297C13.1515 19.9333 13.2009 19.9233 13.2448 19.9004L13.9381 19.541C14.2701 19.3623 14.6402 19.2659 15.0172 19.2607L14.9772 19.2744C15.3489 19.2755 15.7151 19.3671 16.0436 19.541L16.736 19.9141C16.7799 19.9411 16.8308 19.955 16.8824 19.9551C16.934 19.9551 16.985 19.941 17.0289 19.9141C17.0681 19.8825 17.0991 19.8406 17.1178 19.7939C17.1363 19.7475 17.1428 19.697 17.1364 19.6475L17.0026 18.874C16.9446 18.5119 16.9755 18.1409 17.0914 17.793C17.2074 17.4453 17.4052 17.1307 17.6686 16.876L18.2418 16.3291C18.276 16.2922 18.3004 16.2472 18.3121 16.1982C18.3238 16.1493 18.322 16.0981 18.3082 16.0498C18.2931 16.0035 18.265 15.9624 18.2272 15.9316C18.1894 15.9009 18.1437 15.8813 18.0953 15.876L17.3092 15.7559C16.9477 15.6975 16.6055 15.5537 16.3112 15.3359C16.0168 15.118 15.7783 14.8327 15.6168 14.5039L15.2701 13.7979ZM11.191 2.62402C10.4172 2.62409 9.67478 2.9313 9.12756 3.47852C8.58036 4.02577 8.27308 4.76809 8.27307 5.54199V7.40723L12.444 5.00879C12.8182 4.78514 13.2219 4.61513 13.6432 4.50293C14.0548 4.3857 14.4809 4.32678 14.9088 4.3291C15.5527 4.30153 16.1961 4.40194 16.8014 4.62305C17.0017 4.70533 17.1974 4.79837 17.3873 4.90234L21.7584 7.38086V5.54199C21.7584 4.76814 21.4511 4.02576 20.9039 3.47852C20.3568 2.93135 19.6143 2.62414 18.8405 2.62402H11.191Z" fill="black" style="fill:black;fill-opacity:1;"/>
</svg>
