<svg width="20" height="20" viewBox="0 0 20 20" fill="none" xmlns="http://www.w3.org/2000/svg">
<path d="M3.95837 15.8333C3.77782 15.8333 3.62851 15.7743 3.51046 15.6562C3.3924 15.5382 3.33337 15.3889 3.33337 15.2083C3.33337 15.0278 3.3924 14.8785 3.51046 14.7604C3.62851 14.6424 3.77782 14.5833 3.95837 14.5833H5.08337V8.20833C5.08337 7.06944 5.42712 6.03819 6.11462 5.11458C6.80212 4.19097 7.70837 3.61111 8.83337 3.375V2.77083C8.83337 2.45139 8.94796 2.1875 9.17712 1.97916C9.40629 1.77083 9.6806 1.66666 10 1.66666C10.3195 1.66666 10.5938 1.77083 10.823 1.97916C11.0521 2.1875 11.1667 2.45139 11.1667 2.77083V3.375C12.2917 3.61111 13.2014 4.19097 13.8959 5.11458C14.5903 6.03819 14.9375 7.06944 14.9375 8.20833V14.5833H16.0417C16.2223 14.5833 16.3716 14.6424 16.4896 14.7604C16.6077 14.8785 16.6667 15.0278 16.6667 15.2083C16.6667 15.3889 16.6077 15.5382 16.4896 15.6562C16.3716 15.7743 16.2223 15.8333 16.0417 15.8333H3.95837ZM10 18.3333C9.5556 18.3333 9.16671 18.1701 8.83337 17.8437C8.50004 17.5174 8.33337 17.125 8.33337 16.6667H11.6667C11.6667 17.125 11.5035 17.5174 11.1771 17.8437C10.8507 18.1701 10.4584 18.3333 10 18.3333ZM6.33337 14.5833H13.6875V8.20833C13.6875 7.16666 13.3368 6.28819 12.6355 5.57291C11.9341 4.85764 11.0695 4.5 10.0417 4.5C9.00004 4.5 8.12157 4.85764 7.40629 5.57291C6.69101 6.28819 6.33337 7.16666 6.33337 8.20833V14.5833Z" fill="black" style="fill:black;fill-opacity:1;"/>
</svg>
