<svg width="30" height="30" viewBox="0 0 30 30" fill="none" xmlns="http://www.w3.org/2000/svg">
<path opacity="0.1" d="M14.9172 1.875C18.4423 1.87508 21.823 3.27591 24.3156 5.76855C26.8082 8.26125 28.2092 11.6419 28.2092 15.167V25.2314C28.2106 25.614 28.1017 25.9892 27.8957 26.3115C27.6896 26.6339 27.394 26.8896 27.0461 27.0488C26.7022 27.2125 26.3181 27.2731 25.9406 27.2227C25.5632 27.1721 25.2088 27.0129 24.9201 26.7646L23.2014 25.3301C23.1723 25.3099 23.1371 25.2998 23.1017 25.2998C23.0666 25.2999 23.032 25.31 23.0031 25.3301L20.3449 27.5928C19.9817 27.9044 19.5188 28.0762 19.0402 28.0762C18.5618 28.0761 18.0986 27.9044 17.7355 27.5928L15.0773 25.3301C15.0502 25.306 15.015 25.293 14.9787 25.293C14.9424 25.293 14.9072 25.306 14.8801 25.3301L12.1476 27.6553C11.7842 27.9608 11.3236 28.1272 10.8488 28.125C10.3738 28.1293 9.91318 27.9625 9.55096 27.6553L6.83026 25.3428C6.80129 25.3227 6.76689 25.3115 6.73163 25.3115C6.69638 25.3115 6.66196 25.3227 6.633 25.3428L4.91425 26.7646C4.62541 27.013 4.27031 27.1722 3.89276 27.2227C3.51524 27.2731 3.1312 27.2125 2.78729 27.0488C2.43945 26.8896 2.14476 26.6338 1.93866 26.3115C1.73253 25.9892 1.62375 25.6141 1.62518 25.2314V15.167C1.62518 11.642 3.0253 8.26123 5.51776 5.76855C8.01047 3.27584 11.3919 1.875 14.9172 1.875ZM16.4348 8.03516C15.7497 7.75148 14.996 7.67767 14.2687 7.82227C13.5413 7.96695 12.8733 8.32422 12.3488 8.84863C11.8244 9.37308 11.4671 10.0411 11.3224 10.7686C11.1778 11.4958 11.2517 12.2495 11.5353 12.9346C11.8191 13.6197 12.2996 14.2061 12.9162 14.6182C13.5329 15.0302 14.2585 15.25 15.0002 15.25C15.9947 15.25 16.9483 14.8546 17.6516 14.1514C18.3548 13.4481 18.7502 12.4945 18.7502 11.5C18.7502 10.7585 18.5302 10.0336 18.1183 9.41699C17.7063 8.80031 17.12 8.31898 16.4348 8.03516Z" fill="black" style="fill:black;fill-opacity:1;"/>
<path d="M14.9919 15.3276C14.2265 15.3276 13.4782 15.1006 12.8418 14.6754C12.2054 14.2501 11.7093 13.6457 11.4164 12.9385C11.1235 12.2314 11.0468 11.4532 11.1962 10.7025C11.3455 9.95177 11.7141 9.26219 12.2553 8.72094C12.7966 8.1797 13.4862 7.81111 14.2369 7.66178C14.9876 7.51245 15.7658 7.58909 16.4729 7.88201C17.1801 8.17493 17.7845 8.67097 18.2098 9.3074C18.635 9.94384 18.862 10.6921 18.862 11.4575C18.862 12.4839 18.4543 13.4683 17.7285 14.1941C17.0027 14.9199 16.0183 15.3276 14.9919 15.3276ZM14.9919 9.4421C14.5933 9.4421 14.2036 9.5603 13.8722 9.78176C13.5408 10.0032 13.2824 10.318 13.1299 10.6862C12.9774 11.0545 12.9374 11.4598 13.0152 11.8507C13.093 12.2417 13.2849 12.6008 13.5668 12.8826C13.8486 13.1645 14.2078 13.3564 14.5987 13.4342C14.9897 13.512 15.3949 13.4721 15.7632 13.3195C16.1314 13.167 16.4462 12.9087 16.6677 12.5772C16.8891 12.2458 17.0073 11.8561 17.0073 11.4575C17.0041 10.924 16.7907 10.4132 16.4134 10.036C16.0362 9.65872 15.5254 9.44534 14.9919 9.4421ZM20.3334 18.3693C20.5351 18.2283 20.6725 18.0129 20.7154 17.7706C20.7583 17.5283 20.7031 17.2789 20.5621 17.0772C20.4211 16.8755 20.2058 16.7381 19.9635 16.6952C19.7211 16.6523 19.4717 16.7074 19.27 16.8485C17.9855 17.6951 16.4809 18.1463 14.9424 18.1463C13.404 18.1463 11.8994 17.6951 10.6149 16.8485C10.4184 16.7236 10.1823 16.6772 9.9532 16.7185C9.72415 16.7597 9.51897 16.8855 9.3784 17.071C9.23917 17.2749 9.18575 17.5254 9.22971 17.7683C9.27367 18.0113 9.41148 18.2271 9.61333 18.3693C11.2996 19.4322 13.2461 20.0097 15.2392 20.0385C17.0671 20.0108 18.8435 19.4287 20.3334 18.3693ZM10.924 28.1249C10.4488 28.1293 9.98799 27.9625 9.6257 27.6551L6.9055 25.3429C6.87647 25.3227 6.84195 25.3118 6.80658 25.3118C6.77121 25.3118 6.73669 25.3227 6.70766 25.3429L4.98899 26.7648C4.70016 27.0132 4.34541 27.1722 3.96786 27.2227C3.59031 27.2732 3.20622 27.2129 2.86229 27.0492C2.51438 26.89 2.21972 26.6339 2.01359 26.3115C1.80746 25.9892 1.69859 25.6142 1.70003 25.2316V15.1669C1.70003 11.6417 3.10042 8.26081 5.59313 5.7681C8.08584 3.27539 11.4667 1.875 14.9919 1.875C18.5171 1.875 21.898 3.27539 24.3907 5.7681C26.8834 8.26081 28.2838 11.6417 28.2838 15.1669V25.2316C28.2852 25.6142 28.1764 25.9892 27.9702 26.3115C27.7641 26.6339 27.4694 26.89 27.1215 27.0492C26.7776 27.2129 26.3935 27.2732 26.016 27.2227C25.6384 27.1722 25.2836 27.0132 24.9948 26.7648L23.2761 25.3305C23.2471 25.3103 23.2126 25.2995 23.1772 25.2995C23.1419 25.2995 23.1073 25.3103 23.0783 25.3305L20.4199 27.5932C20.0568 27.9049 19.594 28.0762 19.1155 28.0762C18.6369 28.0762 18.1742 27.9049 17.811 27.5932L15.1526 25.3305C15.1254 25.3062 15.0902 25.2927 15.0537 25.2927C15.0172 25.2927 14.982 25.3062 14.9548 25.3305L12.2222 27.6551C11.8588 27.9606 11.3987 28.1271 10.924 28.1249ZM6.80658 23.4388C7.26176 23.4533 7.69818 23.6235 8.04303 23.921L10.7632 26.2331C10.7904 26.2575 10.8257 26.2709 10.8621 26.2709C10.8986 26.2709 10.9339 26.2575 10.9611 26.2331L13.7555 23.921C14.1177 23.6126 14.578 23.4433 15.0537 23.4433C15.5295 23.4433 15.9897 23.6126 16.352 23.921L19.0104 26.1837C19.0376 26.208 19.0728 26.2215 19.1093 26.2215C19.1458 26.2215 19.181 26.208 19.2082 26.1837L21.879 23.9086C22.2404 23.6035 22.6981 23.4362 23.171 23.4362C23.644 23.4362 24.1017 23.6035 24.4631 23.9086L26.1818 25.3429C26.2042 25.362 26.2327 25.3726 26.2622 25.3726C26.2917 25.3726 26.3202 25.362 26.3426 25.3429C26.3696 25.3324 26.3926 25.3136 26.4082 25.2891C26.4237 25.2646 26.4311 25.2358 26.4291 25.2069V15.1669C26.4291 12.1335 25.2241 9.22445 23.0792 7.07956C20.9343 4.93467 18.0252 3.72968 14.9919 3.72968C11.9586 3.72968 9.04948 4.93467 6.90458 7.07956C4.75969 9.22445 3.55471 12.1335 3.55471 15.1669V25.2316C3.55275 25.2606 3.56009 25.2894 3.57566 25.3138C3.59123 25.3383 3.61422 25.3571 3.64126 25.3676C3.66522 25.3831 3.69312 25.3913 3.72163 25.3913C3.75013 25.3913 3.77804 25.3831 3.802 25.3676L5.52067 23.9086C5.88135 23.6067 6.33625 23.4405 6.80658 23.4388Z" fill="black" style="fill:black;fill-opacity:1;"/>
</svg>
