<svg width="30" height="30" viewBox="0 0 30 30" fill="none" xmlns="http://www.w3.org/2000/svg">
<path opacity="0.1" d="M14.975 28.6251C13.9885 28.6277 13.019 28.3699 12.1651 27.878L5.17218 23.8644C4.32255 23.3715 3.6173 22.6657 3.12657 21.8172C2.63585 20.9686 2.37673 20.007 2.375 19.0278V10.9752C2.37673 9.99598 2.63585 9.0343 3.12657 8.18578C3.6173 7.33725 4.32255 6.63144 5.17218 6.13853L12.1651 2.12489C13.0194 1.63371 13.9885 1.37512 14.975 1.37512C15.9615 1.37512 16.9306 1.63371 17.7849 2.12489L24.7778 6.13853C25.6275 6.63144 26.3327 7.33725 26.8234 8.18578C27.3142 9.0343 27.5733 9.99598 27.575 10.9752V19.0278C27.5733 20.007 27.3142 20.9686 26.8234 21.8172C26.3327 22.6657 25.6275 23.3715 24.7778 23.8644L17.7849 27.878C16.9317 28.3716 15.9617 28.6295 14.975 28.6251Z" fill="black" style="fill:black;fill-opacity:1;"/>
<path d="M15 1.25C15.9914 1.25 16.9657 1.51115 17.8242 2.00684L24.8516 6.05664C25.7054 6.55405 26.4141 7.26679 26.9072 8.12305C27.4004 8.97936 27.6613 9.95031 27.6631 10.9385V19.0645C27.6613 20.0526 27.4004 21.0236 26.9072 21.8799C26.4141 22.736 25.7053 23.4479 24.8516 23.9453L17.8242 27.9961C16.9668 28.4942 15.9916 28.7545 15 28.75C14.0088 28.7526 13.0348 28.4924 12.1768 27.9961L5.14844 23.9453C4.29479 23.4479 3.58587 22.736 3.09277 21.8799C2.59961 21.0236 2.33963 20.0526 2.33789 19.0645V10.9385C2.33963 9.95031 2.59961 8.97936 3.09277 8.12305C3.58594 7.26674 4.2946 6.55407 5.14844 6.05664L12.1768 2.00684C13.0352 1.51127 14.0088 1.25003 15 1.25ZM15 3.19531C14.347 3.19564 13.705 3.36258 13.1348 3.68066L6.05566 7.71777C5.50205 8.05223 5.04534 8.5254 4.72949 9.08984C4.41364 9.65434 4.24932 10.2916 4.25391 10.9385V19.0645C4.24932 19.7113 4.41364 20.3486 4.72949 20.9131C5.04528 21.4773 5.50225 21.9498 6.05566 22.2842L13.084 26.3477C13.6543 26.6653 14.2964 26.832 14.9492 26.832C15.6021 26.832 16.2441 26.6654 16.8145 26.3477L23.9443 22.2842C24.5073 21.9561 24.9748 21.4866 25.2998 20.9219C25.6249 20.3569 25.7962 19.7162 25.7969 19.0645V10.9385C25.7962 10.2867 25.6249 9.64599 25.2998 9.08105C24.9747 8.51619 24.5074 8.04586 23.9443 7.71777L16.917 3.65527C16.3316 3.32861 15.6703 3.16041 15 3.16895V3.19531ZM15 18.5283C15.882 18.5284 16.5967 19.2429 16.5967 20.125C16.5967 21.0071 15.8821 21.7226 15 21.7227C14.1179 21.7227 13.4023 21.0071 13.4023 20.125C13.4024 19.2429 14.1179 18.5283 15 18.5283ZM15 8.28027C15.3388 8.28028 15.6637 8.41472 15.9033 8.6543C16.1429 8.89388 16.2773 9.2188 16.2773 9.55762V15.5117C16.2773 15.8506 16.1429 16.1764 15.9033 16.416C15.6637 16.6555 15.3387 16.79 15 16.79C14.6613 16.79 14.3363 16.6554 14.0967 16.416C13.8571 16.1764 13.7227 15.8506 13.7227 15.5117V9.55762C13.7227 9.2188 13.8571 8.89388 14.0967 8.6543C14.3363 8.41473 14.6612 8.28027 15 8.28027Z" fill="black" style="fill:black;fill-opacity:1;"/>
</svg>
