<svg width="30" height="30" viewBox="0 0 30 30" fill="none" xmlns="http://www.w3.org/2000/svg">
<path opacity="0.1" d="M23.8041 2.5C25.0061 2.5038 26.1582 2.98308 27.0082 3.83301C27.8582 4.68305 28.3374 5.83498 28.3412 7.03711V15.6787C28.3256 16.6717 27.9845 17.6325 27.3705 18.4131C26.7563 19.1934 24.6542 19.751 23.6927 20V12.7988C23.6927 11.0225 23.7501 11.25 22.9808 9.3125C22.8787 9.21038 22.7723 9.11331 22.6644 9.01855C23.3256 9.99012 23.6878 11.1439 23.6879 12.3359V19.8838C23.6879 21.4482 23.0665 22.9485 21.9603 24.0547C20.8541 25.1609 19.3538 25.7822 17.7894 25.7822H16.1146C16.0424 25.7806 15.9708 25.7969 15.9066 25.8301C15.8424 25.8633 15.7879 25.9127 15.7474 25.9727L14.6058 27.584C14.3717 27.9259 14.0569 28.2051 13.6898 28.3975C13.3228 28.5898 12.9138 28.6895 12.4994 28.6875C12.0852 28.6895 11.6768 28.5897 11.3099 28.3975C10.9429 28.2051 10.6281 27.9259 10.3939 27.584L9.25232 25.9727C9.21287 25.9119 9.15839 25.8624 9.09412 25.8291C9.02962 25.7957 8.95671 25.7793 8.88416 25.7822H7.33728C6.55735 25.7906 5.78292 25.6442 5.05994 25.3516C4.3371 25.0589 3.67974 24.6256 3.12537 24.0771C2.57101 23.5287 2.13083 22.8759 1.83044 22.1562C1.53006 21.4364 1.37532 20.6638 1.37537 19.8838V12.3359C1.37537 11.5561 1.5301 10.7842 1.83044 10.0645C2.13083 9.34464 2.5709 8.69115 3.12537 8.14258C3.67973 7.59418 4.33714 7.16078 5.05994 6.86816C5.78292 6.57549 6.55735 6.42911 7.33728 6.4375H7.71716C7.99937 5.3639 8.46501 4.01257 9.07361 3.5166C9.88196 2.85788 10.8932 2.49878 11.9359 2.5H23.8041Z" fill="black" style="fill:black;fill-opacity:1;"/>
<path d="M21.8157 20.7196V12.2934C21.8123 11.2278 21.3875 10.2069 20.6341 9.45343C19.8806 8.69996 18.8597 8.27518 17.7941 8.27181H6.30386V7.18662C6.30383 5.61875 6.92403 4.11452 8.02909 3.00228C9.13416 1.89004 10.6343 1.26012 12.2022 1.25H22.7221C24.2966 1.25 25.8066 1.87546 26.92 2.9888C28.0333 4.10213 28.6588 5.61213 28.6588 7.18662V14.8468C28.6555 16.4081 28.0373 17.9052 26.9381 19.014C25.8389 20.1227 24.3472 20.7539 22.786 20.7706L21.8157 20.7196ZM17.7941 6.35677C19.3686 6.35677 20.8786 6.98224 21.9919 8.09557C23.1053 9.2089 23.7307 10.7189 23.7307 12.2934V18.6769C24.5829 18.4562 25.3391 17.962 25.8834 17.2702C26.4277 16.5783 26.7299 15.727 26.7437 14.8468V7.18662C26.7404 6.12107 26.3156 5.10012 25.5621 4.34665C24.8086 3.59319 23.7877 3.16841 22.7221 3.16504H12.2022C11.2778 3.16391 10.3814 3.48228 9.66478 4.06626C8.94819 4.65024 8.45544 5.46393 8.26997 6.36954L17.7941 6.35677ZM12.5341 28.75C12.117 28.752 11.7058 28.6518 11.3363 28.4582C10.9669 28.2646 10.6505 27.9834 10.4148 27.6392L9.26579 26.0178C9.22599 25.9566 9.17092 25.9067 9.10601 25.8731C9.0411 25.8395 8.96857 25.8234 8.89555 25.8263H7.33798C6.55302 25.8348 5.77417 25.6875 5.04653 25.3929C4.31888 25.0983 3.65687 24.6624 3.09883 24.1103C2.54078 23.5582 2.09778 22.9009 1.79545 22.1764C1.49312 21.452 1.33748 20.6747 1.33752 19.8897V12.2934C1.33748 11.5084 1.49312 10.7312 1.79545 10.0067C2.09778 9.28225 2.54078 8.62495 3.09883 8.07284C3.65687 7.52073 4.31888 7.08478 5.04653 6.79022C5.77417 6.49566 6.55302 6.34833 7.33798 6.35677H17.8579C19.4324 6.35677 20.9424 6.98224 22.0558 8.09557C23.1691 9.2089 23.7946 10.7189 23.7946 12.2934V19.8897C23.7946 21.4642 23.1691 22.9742 22.0558 24.0875C20.9424 25.2009 19.4324 25.8263 17.8579 25.8263H16.1727C16.0999 25.8246 16.0278 25.8413 15.9631 25.8747C15.8984 25.9082 15.8431 25.9574 15.8025 26.0178L14.6534 27.6392C14.4178 27.9834 14.1014 28.2646 13.7319 28.4582C13.3625 28.6518 12.9512 28.752 12.5341 28.75ZM7.33798 8.27181C6.80497 8.26506 6.27591 8.36401 5.78137 8.56293C5.28683 8.76185 4.83661 9.0568 4.45673 9.43075C4.07685 9.80469 3.77484 10.2502 3.56816 10.7416C3.36147 11.2329 3.25421 11.7603 3.25256 12.2934V19.8897C3.2491 20.4254 3.35268 20.9564 3.55725 21.4515C3.76181 21.9466 4.06323 22.3958 4.4438 22.7728C4.82437 23.1498 5.27643 23.447 5.77343 23.6469C6.27043 23.8468 6.80236 23.9454 7.33798 23.9368H8.89555C9.27655 23.935 9.65229 24.0258 9.99037 24.2015C10.3284 24.3772 10.6187 24.6325 10.8361 24.9454L11.9724 26.4902C12.0357 26.5805 12.1198 26.6543 12.2175 26.7054C12.3152 26.7565 12.4238 26.7834 12.5341 26.7839C12.6444 26.7834 12.753 26.7565 12.8507 26.7054C12.9485 26.6543 13.0326 26.5805 13.0959 26.4902L14.2321 24.8688C14.4579 24.57 14.7518 24.3296 15.0894 24.1675C15.4269 24.0053 15.7984 23.9263 16.1727 23.9368H17.7941C18.8607 23.9368 19.8836 23.5131 20.6378 22.7589C21.392 22.0047 21.8157 20.9818 21.8157 19.9153V12.2934C21.8123 11.2278 21.3875 10.2069 20.6341 9.45343C19.8806 8.69996 18.8597 8.27518 17.7941 8.27181H7.33798ZM8.07846 15C7.84111 15 7.60908 15.0704 7.41173 15.2022C7.21437 15.3341 7.06056 15.5215 6.96972 15.7408C6.87889 15.9601 6.85513 16.2014 6.90143 16.4342C6.94774 16.667 7.06204 16.8808 7.22987 17.0487C7.39771 17.2165 7.61154 17.3308 7.84434 17.3771C8.07713 17.4234 8.31843 17.3996 8.53772 17.3088C8.75701 17.218 8.94444 17.0642 9.0763 16.8668C9.20817 16.6695 9.27856 16.4374 9.27856 16.2001C9.27523 15.8828 9.14773 15.5795 8.92338 15.3552C8.69904 15.1308 8.39572 15.0033 8.07846 15ZM12.5469 15C12.3119 14.9955 12.0807 15.0601 11.8821 15.1858C11.6834 15.3115 11.5261 15.4927 11.4296 15.7071C11.333 15.9214 11.3016 16.1594 11.3391 16.3914C11.3766 16.6235 11.4815 16.8394 11.6406 17.0124C11.7998 17.1854 12.0062 17.3078 12.2344 17.3645C12.4625 17.4212 12.7022 17.4097 12.9239 17.3313C13.1455 17.253 13.3392 17.1112 13.481 16.9237C13.6228 16.7363 13.7064 16.5113 13.7214 16.2767C13.73 16.1153 13.7063 15.9538 13.6516 15.8017C13.5969 15.6497 13.5123 15.5101 13.4029 15.3911C13.2935 15.2722 13.1614 15.1763 13.0144 15.1091C12.8674 15.042 12.7084 15.0049 12.5469 15ZM17.0025 15C16.7652 15 16.5332 15.0704 16.3358 15.2022C16.1385 15.3341 15.9846 15.5215 15.8938 15.7408C15.803 15.9601 15.7792 16.2014 15.8255 16.4342C15.8718 16.667 15.9861 16.8808 16.154 17.0487C16.3218 17.2165 16.5356 17.3308 16.7684 17.3771C17.0012 17.4234 17.2425 17.3996 17.4618 17.3088C17.6811 17.218 17.8685 17.0642 18.0004 16.8668C18.1323 16.6695 18.2026 16.4374 18.2026 16.2001C18.1993 15.8828 18.0718 15.5795 17.8475 15.3552C17.6231 15.1308 17.3198 15.0033 17.0025 15Z" fill="black" style="fill:black;fill-opacity:1;"/>
</svg>
