<svg width="20" height="20" viewBox="0 0 20 20" fill="none" xmlns="http://www.w3.org/2000/svg">
<path d="M5.97917 18.3125C5.5625 18.3125 5.20833 18.1667 4.91667 17.875C4.625 17.5833 4.47917 17.2292 4.47917 16.8125C4.47917 16.3958 4.625 16.0417 4.91667 15.75C5.20833 15.4583 5.5625 15.3125 5.97917 15.3125C6.38194 15.3125 6.73264 15.4583 7.03125 15.75C7.32986 16.0417 7.47917 16.3958 7.47917 16.8125C7.47917 17.2292 7.33333 17.5833 7.04167 17.875C6.75 18.1667 6.39583 18.3125 5.97917 18.3125ZM14.3125 18.3125C13.8958 18.3125 13.5417 18.1667 13.25 17.875C12.9583 17.5833 12.8125 17.2292 12.8125 16.8125C12.8125 16.3958 12.9583 16.0417 13.25 15.75C13.5417 15.4583 13.8958 15.3125 14.3125 15.3125C14.7153 15.3125 15.066 15.4583 15.3646 15.75C15.6632 16.0417 15.8125 16.3958 15.8125 16.8125C15.8125 17.2292 15.6667 17.5833 15.375 17.875C15.0833 18.1667 14.7292 18.3125 14.3125 18.3125ZM4.89583 4.5625L7.1875 9.3125H13.1875L15.7917 4.5625H4.89583ZM5.77083 13.9792C5.1875 13.9792 4.76736 13.7847 4.51042 13.3958C4.25347 13.0069 4.25694 12.5694 4.52083 12.0833L5.85417 9.625L2.6875 2.91666H1.66667C1.5 2.91666 1.35764 2.85416 1.23958 2.72916C1.12153 2.60416 1.0625 2.45139 1.0625 2.27083C1.0625 2.10416 1.12153 1.9618 1.23958 1.84375C1.35764 1.72569 1.50694 1.66666 1.6875 1.66666H3.10417C3.22917 1.66666 3.34028 1.69791 3.4375 1.76041C3.53472 1.82291 3.61111 1.90972 3.66667 2.02083L4.27083 3.3125H16.5417C16.9861 3.3125 17.2674 3.44791 17.3854 3.71875C17.5035 3.98958 17.4653 4.29166 17.2708 4.625L14.4583 9.6875C14.3194 9.92361 14.125 10.1285 13.875 10.3021C13.625 10.4757 13.3542 10.5625 13.0625 10.5625H6.75L5.58333 12.7292H15.2083C15.375 12.7292 15.5174 12.7917 15.6354 12.9167C15.7535 13.0417 15.8125 13.1875 15.8125 13.3542C15.8125 13.5347 15.7535 13.684 15.6354 13.8021C15.5174 13.9201 15.3681 13.9792 15.1875 13.9792H5.77083ZM7.1875 9.3125H13.1875H7.1875Z" fill="black" style="fill:black;fill-opacity:1;"/>
</svg>
