<svg width="30" height="30" viewBox="0 0 30 30" fill="none" xmlns="http://www.w3.org/2000/svg">
<path opacity="0.1" d="M14.9994 1.68799C16.0969 1.68799 17.1759 1.97615 18.1263 2.5249L24.2357 6.05322C25.1879 6.60297 25.9788 7.39369 26.5297 8.34521C27.0804 9.29658 27.3717 10.3758 27.3744 11.4751V18.5317C27.3718 19.6312 27.0805 20.7111 26.5297 21.6626C25.9788 22.6141 25.1879 23.4048 24.2357 23.9546L18.1263 27.4819C17.1754 28.0286 16.0963 28.3159 14.9994 28.313C13.9024 28.3177 12.8235 28.0303 11.8734 27.4819L5.76404 23.9546C4.81185 23.4048 4.02099 22.6141 3.47009 21.6626C2.9192 20.7111 2.62799 19.6312 2.62537 18.5317V11.4751C2.62808 10.3758 2.9193 9.29661 3.47009 8.34521C4.02099 7.39367 4.81183 6.60298 5.76404 6.05322L11.8734 2.5249C12.8238 1.97622 13.902 1.68805 14.9994 1.68799ZM16.9662 9.89697C16.0126 9.50198 14.9629 9.39873 13.9506 9.6001C12.9382 9.80146 12.0085 10.299 11.2787 11.0288C10.5489 11.7587 10.0513 12.6884 9.84998 13.7007C9.64864 14.713 9.75187 15.7627 10.1469 16.7163C10.5419 17.6698 11.2116 18.4847 12.0697 19.0581C12.9279 19.6314 13.9371 19.938 14.9691 19.938C16.3531 19.9379 17.68 19.3873 18.6586 18.4087C19.6372 17.4301 20.1877 16.1032 20.1879 14.7192C20.1879 13.6872 19.8813 12.678 19.308 11.8198C18.7346 10.9617 17.9197 10.292 16.9662 9.89697Z" fill="black" style="fill:black;fill-opacity:1;"/>
<path d="M14.9912 1.5625C16.0989 1.56254 17.1872 1.85434 18.1465 2.4082L24.3135 5.96973C25.2745 6.52459 26.0729 7.32192 26.6289 8.28223C27.185 9.24271 27.4798 10.3325 27.4824 11.4424V18.5654C27.4797 19.6752 27.1849 20.7652 26.6289 21.7256C26.0729 22.6858 25.2744 23.4833 24.3135 24.0381L18.1465 27.5996C17.1867 28.1514 16.0983 28.4404 14.9912 28.4375C13.8839 28.4423 12.795 28.153 11.8359 27.5996L5.66895 24.0381C4.70788 23.4832 3.9086 22.686 3.35254 21.7256C2.79652 20.7652 2.50271 19.6752 2.5 18.5654V11.4424C2.50265 10.3325 2.79647 9.24271 3.35254 8.28223C3.90861 7.32175 4.7078 6.52464 5.66895 5.96973L11.8359 2.4082C12.7953 1.85439 13.8835 1.5625 14.9912 1.5625ZM14.9912 3.56055C14.2282 3.55423 13.4771 3.75328 12.8174 4.13672L6.65039 7.67188C5.99698 8.05987 5.45634 8.61208 5.08203 9.27344C4.70775 9.93483 4.51281 10.6824 4.5166 11.4424V18.5654C4.51287 19.3254 4.70772 20.073 5.08203 20.7344C5.45637 21.3958 5.99692 21.9479 6.65039 22.3359L12.8174 25.8975C13.4786 26.2777 14.2284 26.4775 14.9912 26.4775C15.7538 26.4775 16.503 26.2775 17.1641 25.8975L23.3311 22.3359C23.9846 21.9479 24.526 21.3958 24.9004 20.7344C25.2746 20.0731 25.4696 19.3253 25.4658 18.5654V11.4424C25.4696 10.6825 25.2746 9.93479 24.9004 9.27344C24.526 8.61199 23.9846 8.05988 23.3311 7.67188L17.1641 4.11035C16.5044 3.72703 15.7541 3.52791 14.9912 3.53418V3.56055ZM13.9502 9.47754C14.9862 9.27153 16.0602 9.37708 17.0361 9.78125C18.0122 10.1855 18.8466 10.8706 19.4336 11.749C20.0205 12.6274 20.3339 13.6603 20.334 14.7168C20.334 16.1335 19.7712 17.4923 18.7695 18.4941C17.7677 19.4959 16.4089 20.0595 14.9922 20.0596C13.9358 20.0596 12.9028 19.746 12.0244 19.1592C11.146 18.5722 10.461 17.7377 10.0566 16.7617C9.65231 15.7856 9.54681 14.7111 9.75293 13.6748C9.95907 12.6386 10.4678 11.6865 11.2148 10.9395C11.9619 10.1925 12.914 9.68365 13.9502 9.47754ZM14.9922 11.3389C14.3241 11.3389 13.6708 11.537 13.1152 11.9082C12.5597 12.2794 12.1268 12.8075 11.8711 13.4248C11.6156 14.0419 11.5484 14.7209 11.6787 15.376C11.809 16.0312 12.1311 16.633 12.6035 17.1055C13.0759 17.5779 13.6777 17.8999 14.333 18.0303C14.9883 18.1606 15.6679 18.0936 16.2852 17.8379C16.9023 17.5822 17.4297 17.1492 17.8008 16.5938C18.172 16.0382 18.3701 15.3849 18.3701 14.7168C18.3666 13.822 18.0097 12.9647 17.377 12.332C16.7442 11.6993 15.887 11.3423 14.9922 11.3389Z" fill="black" style="fill:black;fill-opacity:1;"/>
</svg>
